<!DOCTYPE svg PUBLIC "-//W3C//DTD SVG 1.1//EN" "http://www.w3.org/Graphics/SVG/1.1/DTD/svg11.dtd">
<!-- Uploaded to: SVG Repo, www.svgrepo.com, Transformed by: SVG Repo Mixer Tools -->
<svg width="800px" height="800px" viewBox="0 0 24 24" fill="none" xmlns="http://www.w3.org/2000/svg">
<g id="SVGRepo_bgCarrier" stroke-width="0"/>
<g id="SVGRepo_tracerCarrier" stroke-linecap="round" stroke-linejoin="round"/>
<g id="SVGRepo_iconCarrier"> <path d="M15 5.51215C18.4956 6.74766 21 10.0814 21 14C21 15.4685 20.6483 16.8549 20.0245 18.0794C19.7216 18.6741 19.0839 19 18.4165 19H5.58351C4.91613 19 4.27839 18.6741 3.97547 18.0794C3.3517 16.8549 3 15.4685 3 14C3 10.0814 5.50442 6.74766 9 5.51215M12 12.9999C11.4477 12.9999 11 13.4477 11 13.9999C11 14.5522 11.4477 14.9999 12 14.9999C12.5523 14.9999 13 14.5522 13 13.9999C13 13.4477 12.5523 12.9999 12 12.9999ZM12 12.9999V3.99994" stroke="#ffffff" stroke-width="2" stroke-linecap="round" stroke-linejoin="round"/> </g>
</svg>